# xmcd CD database file
# Copyright (C) 1997 Ti Kan
# 
# Track frame offsets:
#     150
#     13372
#     22340
#     32447
#     41022
#     51455
#     61350
#     69427
#     129490
#     136040
# 
# Disc length: 1967 seconds
# 
# Revision: 1
# Processed by: cddbd v1.4b41PL1 Copyright (c) Steve Scherf et al.
# Submitted via: DiscPlay 4.0.4
# 
DISCID=8e07ad0a
DTITLE=Gene Autry - Gene Autry Christmas Time
DYEAR=1900
DGENRE=
TTITLE0=Rudolph The Red Nosed Reindeer
TTITLE1=Jingle Bells
TTITLE2=Here Comes Santa Claus
TTITLE3=Frosty The Snowman
TTITLE4=Buona Natale
TTITLE5=Silver Bells
TTITLE6=Thirty Two Feet and Eight Little Tails
TTITLE7=Story Of The Nativity
TTITLE8=Silent Night
TTITLE9=Up On A House Top
EXTD=
EXTT0=
EXTT1=
EXTT2=
EXTT3=
EXTT4=
EXTT5=
EXTT6=
EXTT7=
EXTT8=
EXTT9=
PLAYORDER=
